<svg width="26" height="23" viewBox="0 0 26 23" fill="none" xmlns="http://www.w3.org/2000/svg">
<path d="M3.5025 15.1775C2.52958 15.1775 1.7026 14.837 1.02156 14.1559C0.340521 13.4749 0 12.6479 0 11.675C0 10.7021 0.340521 9.8751 1.02156 9.19406C1.7026 8.51302 2.52958 8.17249 3.5025 8.17249V5.83749C3.5025 5.19537 3.73114 4.64567 4.18841 4.1884C4.64568 3.73113 5.19538 3.50249 5.8375 3.50249H9.34C9.34 2.52958 9.68052 1.7026 10.3616 1.02156C11.0426 0.340515 11.8696 -5.72205e-06 12.8425 -5.72205e-06C13.8154 -5.72205e-06 14.6424 0.340515 15.3234 1.02156C16.0045 1.7026 16.345 2.52958 16.345 3.50249H19.8475C20.4896 3.50249 21.0393 3.73113 21.4966 4.1884C21.9539 4.64567 22.1825 5.19537 22.1825 5.83749V8.17249C23.1554 8.17249 23.9824 8.51302 24.6634 9.19406C25.3445 9.8751 25.685 10.7021 25.685 11.675C25.685 12.6479 25.3445 13.4749 24.6634 14.1559C23.9824 14.837 23.1554 15.1775 22.1825 15.1775V19.8475C22.1825 20.4896 21.9539 21.0393 21.4966 21.4966C21.0393 21.9539 20.4896 22.1825 19.8475 22.1825H5.8375C5.19538 22.1825 4.64568 21.9539 4.18841 21.4966C3.73114 21.0393 3.5025 20.4896 3.5025 19.8475V15.1775ZM9.34 12.8425C9.82646 12.8425 10.2399 12.6722 10.5805 12.3317C10.921 11.9912 11.0913 11.5777 11.0913 11.0912C11.0913 10.6048 10.921 10.1913 10.5805 9.85078C10.2399 9.51025 9.82646 9.33999 9.34 9.33999C8.85354 9.33999 8.44005 9.51025 8.09953 9.85078C7.75901 10.1913 7.58875 10.6048 7.58875 11.0912C7.58875 11.5777 7.75901 11.9912 8.09953 12.3317C8.44005 12.6722 8.85354 12.8425 9.34 12.8425ZM16.345 12.8425C16.8315 12.8425 17.2449 12.6722 17.5855 12.3317C17.926 11.9912 18.0963 11.5777 18.0963 11.0912C18.0963 10.6048 17.926 10.1913 17.5855 9.85078C17.2449 9.51025 16.8315 9.33999 16.345 9.33999C15.8585 9.33999 15.4451 9.51025 15.1045 9.85078C14.764 10.1913 14.5938 10.6048 14.5938 11.0912C14.5938 11.5777 14.764 11.9912 15.1045 12.3317C15.4451 12.6722 15.8585 12.8425 16.345 12.8425ZM8.1725 17.5125H17.5125V15.1775H8.1725V17.5125ZM5.8375 19.8475H19.8475V5.83749H5.8375V19.8475Z" fill="#135BEC"/>
</svg>
